PathFileType	4	(X/Y/Z)	C:/Users/Carlo/Dropbox/Carlos/SARAH/CongressoMarcha2025/WorkshopOpenSim/C3D/Caso02/Static.c3d.trc
DataRate	CameraRate	NumFrames	NumMarkers	Units	OrigDataRate	OrigDataStartFrame	OrigNumFrames
100.000000	100.000000	2	141	mm	100.000000	62	100
Frame#	Time	LFHD			RFHD			LBHD			RBHD			C7			T10			CLAV			STRN			RBAK			LSHO			LUPA			LELB			LFRM			LWRA			LWRB			LFIN			RSHO			RUPA			RELB			RFRM			RWRA			RWRB			RFIN			LASI			RASI			LPSI			RPSI			LTHI			LKNE			LTIB			LANK			LHEE			LTOE			RTHI			RKNE			RTIB			RANK			RHEE			RTOE			PELO			PELA			PELL			PELP			LFEO			LFEA			LFEL			LFEP			LTIO			LTIA			LTIL			LTIP			LFOO			LFOA			LFOL			LFOP			LTOO			LTOA			LTOL			LTOP			RFEO			RFEA			RFEL			RFEP			RTIO			RTIA			RTIL			RTIP			RFOO			RFOA			RFOL			RFOP			RTOO			RTOA			RTOL			RTOP			HEDO			HEDA			HEDL			HEDP			LCLO			LCLA			LCLL			LCLP			RCLO			RCLA			RCLL			RCLP			TRXO			TRXA			TRXL			TRXP			LHUO			LHUA			LHUL			LHUP			LRAO			LRAA			LRAL			LRAP			LHNO			LHNA			LHNL			LHNP			RHUO			RHUA			RHUL			RHUP			RRAO			RRAA			RRAL			RRAP			RHNO			RHNA			RHNL			RHNP			LHipAngles			LKneeAngles			LAbsAnkleAngle			LAnkleAngles			RHipAngles			RKneeAngles			RAnkleAngles			RAbsAnkleAngle			LPelvisAngles			RPelvisAngles			LFootProgressAngles			RFootProgressAngles			RNeckAngles			LNeckAngles			RSpineAngles			LSpineAngles			LShoulderAngles			LElbowAngles			LWristAngles			RShoulderAngles			RElbowAngles			RWristAngles			RThoraxAngles			LThoraxAngles			RHeadAngles			LHeadAngles			
		X1	Y1	Z1	X2	Y2	Z2	X3	Y3	Z3	X4	Y4	Z4	X5	Y5	Z5	X6	Y6	Z6	X7	Y7	Z7	X8	Y8	Z8	X9	Y9	Z9	X10	Y10	Z10	X11	Y11	Z11	X12	Y12	Z12	X13	Y13	Z13	X14	Y14	Z14	X15	Y15	Z15	X16	Y16	Z16	X17	Y17	Z17	X18	Y18	Z18	X19	Y19	Z19	X20	Y20	Z20	X21	Y21	Z21	X22	Y22	Z22	X23	Y23	Z23	X24	Y24	Z24	X25	Y25	Z25	X26	Y26	Z26	X27	Y27	Z27	X28	Y28	Z28	X29	Y29	Z29	X30	Y30	Z30	X31	Y31	Z31	X32	Y32	Z32	X33	Y33	Z33	X34	Y34	Z34	X35	Y35	Z35	X36	Y36	Z36	X37	Y37	Z37	X38	Y38	Z38	X39	Y39	Z39	X40	Y40	Z40	X41	Y41	Z41	X42	Y42	Z42	X43	Y43	Z43	X44	Y44	Z44	X45	Y45	Z45	X46	Y46	Z46	X47	Y47	Z47	X48	Y48	Z48	X49	Y49	Z49	X50	Y50	Z50	X51	Y51	Z51	X52	Y52	Z52	X53	Y53	Z53	X54	Y54	Z54	X55	Y55	Z55	X56	Y56	Z56	X57	Y57	Z57	X58	Y58	Z58	X59	Y59	Z59	X60	Y60	Z60	X61	Y61	Z61	X62	Y62	Z62	X63	Y63	Z63	X64	Y64	Z64	X65	Y65	Z65	X66	Y66	Z66	X67	Y67	Z67	X68	Y68	Z68	X69	Y69	Z69	X70	Y70	Z70	X71	Y71	Z71	X72	Y72	Z72	X73	Y73	Z73	X74	Y74	Z74	X75	Y75	Z75	X76	Y76	Z76	X77	Y77	Z77	X78	Y78	Z78	X79	Y79	Z79	X80	Y80	Z80	X81	Y81	Z81	X82	Y82	Z82	X83	Y83	Z83	X84	Y84	Z84	X85	Y85	Z85	X86	Y86	Z86	X87	Y87	Z87	X88	Y88	Z88	X89	Y89	Z89	X90	Y90	Z90	X91	Y91	Z91	X92	Y92	Z92	X93	Y93	Z93	X94	Y94	Z94	X95	Y95	Z95	X96	Y96	Z96	X97	Y97	Z97	X98	Y98	Z98	X99	Y99	Z99	X100	Y100	Z100	X101	Y101	Z101	X102	Y102	Z102	X103	Y103	Z103	X104	Y104	Z104	X105	Y105	Z105	X106	Y106	Z106	X107	Y107	Z107	X108	Y108	Z108	X109	Y109	Z109	X110	Y110	Z110	X111	Y111	Z111	X112	Y112	Z112	X113	Y113	Z113	X114	Y114	Z114	X115	Y115	Z115	X116	Y116	Z116	X117	Y117	Z117	X118	Y118	Z118	X119	Y119	Z119	X120	Y120	Z120	X121	Y121	Z121	X122	Y122	Z122	X123	Y123	Z123	X124	Y124	Z124	X125	Y125	Z125	X126	Y126	Z126	X127	Y127	Z127	X128	Y128	Z128	X129	Y129	Z129	X130	Y130	Z130	X131	Y131	Z131	X132	Y132	Z132	X133	Y133	Z133	X134	Y134	Z134	X135	Y135	Z135	X136	Y136	Z136	X137	Y137	Z137	X138	Y138	Z138	X139	Y139	Z139	X140	Y140	Z140	X141	Y141	Z141	

63	0.62	-353.0293273925782	1741.601440429688	392.4716491699221	-478.4773254394534	1731.573974609376	370.5128479003907	-327.0668334960939	1698.509399414063	243.6140899658204	-468.4852600097659	1698.148559570313	232.6561279296876	-402.8363342285159	1519.455688476563	211.8516998291017	-403.6062316894534	1256.747192382813	164.5168151855469	-410.0823059082034	1467.91552734375	356.556121826172	-408.5675964355471	1288.492065429688	406.5389709472659	-452.9011840820315	1350.998413085938	141.0609588623047	-224.7521057128907	1502.595581054688	260.2291870117189	-93.42755889892581	1457.279907226563	271.8970031738282	58.64863586425784	1405.654663085938	295.7684936523439	36.92892837524415	1412.725219726563	427.6120605468752	-73.73318481445315	1398.181396484375	523.9715576171877	-4.437653541564943	1394.759765625	557.6518554687502	-57.20798110961917	1422.674438476563	618.7276611328127	-589.058532714844	1505.09619140625	248.0306243896486	-758.6123046875002	1436.705688476563	227.9061737060548	-865.8102416992192	1399.628051757813	243.3302459716798	-835.7589721679692	1441.191772460938	379.0776672363282	-783.6686401367192	1439.067504882813	493.7666320800784	-859.0034179687505	1430.3134765625	504.0957336425784	-814.1516723632817	1466.2177734375	575.7620849609377	-301.5583801269532	1026.210571289063	359.3702392578126	-518.802429199219	1030.989990234375	359.8679504394532	-345.7846069335939	1035.205810546875	169.899398803711	-483.7552185058596	1032.267333984375	168.8386230468751	-213.3551177978517	757.6058349609377	318.3361206054689	-237.1670837402345	523.2889404296877	287.8283691406251	-202.2870635986329	317.4730529785157	242.1515045166017	-208.8595123291017	79.68807220458987	220.6860198974611	-250.9750061035157	38.17430496215822	169.1282043457032	-230.8968505859376	44.53822326660158	365.8624877929689	-590.4971923828127	668.6866455078127	311.5260009765626	-564.3135375976565	513.4381103515627	294.638397216797	-593.349792480469	267.825897216797	246.2901763916017	-586.915710449219	83.36179351806643	220.5339355468751	-533.165710449219	46.46761322021486	165.6400299072266	-570.6763916015627	42.8971519470215	363.5265502929689	-412.4685974121096	929.9807739257817	307.8915100097657	-412.2467041015627	926.5371704101567	437.8250732421877	-282.520965576172	927.1218872070317	307.5938110351564	-409.6028442382815	1059.883056640625	311.3294067382814	-295.7795410156251	517.008483886719	274.2127990722657	-384.939880371094	473.4824829101565	678.1086425781252	107.1484680175782	560.183288574219	367.8122558593751	-347.5033569335939	928.368774414063	307.1251220703126	-253.2103881835939	74.7897644042969	226.517791748047	-193.7029113769532	35.28670120239259	645.8946533203127	166.0683898925782	121.0968475341797	171.3861236572266	-293.7407531738282	495.8286437988284	271.9284667968751	-225.7793426513673	68.16953277587893	360.2402648925782	-247.2409515380861	257.7942504882814	356.2966308593751	-37.10525512695314	89.109001159668	340.3073730468751	-245.1489410400392	62.03020477294925	170.4487915039063	-219.3228149414064	70.21598815917972	423.504089355469	-226.4766845703126	133.4242248535157	422.1895751953127	-156.4314880371094	77.19581604003909	416.859802246094	-225.7793426513673	68.16956329345706	360.2402648925782	-505.1131896972659	510.2961730957034	282.5679321289064	-422.4143066406252	479.2442321777346	696.2517089843752	-91.19006347656253	488.3276367187502	198.1722106933595	-477.4337463378909	931.5927124023442	308.6579589843751	-542.0911254882815	79.43336486816409	221.1048889160157	-552.3926391601565	21.6556625366211	632.3308105468752	-128.3179626464844	43.17028808593751	226.3751983642579	-506.9248657226565	489.1866455078127	279.5566406250001	-581.2774658203127	65.54878234863284	353.9447326660157	-564.399597167969	259.1029052734376	360.6363525390626	-391.0209960937502	47.72276306152345	389.6874084472659	-545.0773925781252	68.99452209472659	162.9721832275391	-593.3442382812502	64.40021514892581	417.602233886719	-587.7182617187502	128.9182739257813	419.8327941894534	-529.9254150390627	58.45816421508792	429.5164794921877	-581.277526855469	65.54878997802737	353.9447021484376	-392.389831542969	1621.802490234376	215.9271087646486	-419.7393493652346	1680.006958007813	434.0218200683596	-166.6657257080079	1630.119384765626	242.0137634277345	-393.6894836425784	1841.447875976563	157.1458129882813	-228.5062255859376	1445.215087890625	267.8049316406251	-144.6651000976563	1463.611206054688	448.6888122558596	-215.5469512939454	1643.293090820313	241.6534423828126	-409.8607177734377	1467.8740234375	349.5597534179689	-586.6123046875002	1447.670043945313	255.7929687500001	-682.1553344726565	1467.370483398438	431.647888183594	-578.1304321289065	1248.558959960938	282.707000732422	-409.860778808594	1467.873901367188	349.5597534179689	-409.8607177734377	1467.8740234375	349.559783935547	-416.2128601074221	1469.064453125	550.1143798828127	-610.4185791015627	1467.498168945313	343.2097778320314	-409.5227050781252	1267.219116210938	350.7615356445314	46.75540924072267	1364.044677734375	291.3638916015626	69.35846710205081	1357.401733398438	4.383728027343752	-34.6865692138672	1087.856567382813	291.3425292968751	-228.5061950683595	1445.21533203125	267.804901123047	-39.75421142578126	1389.535034179688	541.483093261719	183.3568725585938	1323.737915039063	625.3569335937502	-109.6916503906251	1152.361328125	541.464782714844	40.69971466064455	1365.828857421875	308.8722534179689	-79.25788116455081	1406.192016601563	700.0401000976565	-64.65110015869143	1569.234863281251	686.5510864257815	79.50110626220706	1395.335815429688	740.734558105469	-39.75421142578126	1389.535034179688	541.483093261719	-852.1896972656255	1358.60107421875	248.1797180175782	-825.8532104492192	1303.448852539063	-25.29281616210939	-937.6159667968755	1618.500244140626	187.5379638671876	-586.6121826171877	1447.670166015625	255.7930145263673	-820.302612304688	1428.03125	500.8247375488284	-1052.1982421875	1362.820190429688	548.0139160156252	-895.1349487304692	1655.700073242188	447.7031555175784	-849.957641601563	1363.461181640625	265.8648071289064	-801.279418945313	1455.461547851563	658.4075317382815	-823.003784179688	1613.127441406251	633.5853271484377	-642.8093261718752	1473.782836914063	636.088073730469	-820.302612304688	1428.03125	500.8247985839846	-8.410846710205082	12.50804710388184	-3.053177118301393	1.975058436393739	-20.3613624572754	1.175880312919617	0	0	7.371525287628177	-3.928501404390496e-13	1.452257513999939	7.373908996582035	-2.485779285430909	11.24537754058838	-2.029494762420655	-0.2026132196187974	-12.38944149017335	4.689319133758547	5.22658793414982e-13	-9.873533248901371	6.117111682891849	0	0	6.026163578033451	-1.263347148895264	-0.09784764796495443	1.516001343727113	1.263347148895264	0.09784764796495443	1.516001343727113	-6.489477634429935	-5.824246883392336	-91.85274505615237	-5.069499015808107	-10.73173522949219	-88.96633148193362	1.960904836654664	4.790240287780763	-14.51185512542725	-1.960904836654664	-4.790240287780763	-14.51185512542725	1.41797947883606	1.908401608467103	-1.815253376960755	-1.41797947883606	-1.908401608467103	-1.815253376960755	73.48036956787112	-0.1829444617033005	2.856847524642945	-6.072250555737217e-16	-1.088863591305889e-12	105.1350250244141	1.680026173591615	102.1278152465821	-4.788712024688722	71.57338714599612	-11.60381698608399	0.05510513857007029	0	1.953655770145502e-12	102.9508056640626	-5.150466442108156	99.50329589843756	-1.79864001274109	-0.09651819616556173	-1.814085841178895	-0.3431450128555299	0.09651819616556173	1.814085841178895	-0.3431450128555299	-0.3275121450424195	-6.908482074737552	14.98235130310059	0.3275121450424195	6.908482074737552	14.98235130310059	
64	0.63	-352.8874511718751	1741.603271484376	392.4970703125002	-478.3373107910159	1731.592529296876	370.5262451171876	-326.9225158691407	1698.485839843751	243.6308898925782	-468.3524169921877	1698.134643554688	232.6858825683595	-402.7319030761721	1519.43896484375	211.9093780517579	-403.546325683594	1256.73193359375	164.6397399902344	-409.961608886719	1467.85791015625	356.576141357422	-408.4800720214846	1288.444213867188	406.5653076171877	-452.8003234863284	1350.979248046875	141.1435546875001	-224.6306457519532	1502.54638671875	260.273162841797	-93.27740478515628	1457.279541015625	271.8105468750001	58.759880065918	1405.585571289063	295.8117675781251	37.10085296630861	1412.747314453125	427.7319335937502	-73.61655426025393	1398.124755859375	524.0527954101565	-4.298726081848146	1394.675048828125	557.6865234375002	-57.08220672607425	1422.586059570313	618.7922973632815	-588.9570922851565	1505.0869140625	248.1102447509767	-758.4712524414065	1436.643188476563	227.9495544433595	-865.7036132812505	1399.541870117188	243.3608245849611	-835.6325683593755	1441.051025390625	379.0816650390626	-783.5560913085942	1438.908081054688	493.772888183594	-858.916625976563	1430.135864257813	504.1155700683596	-814.0514526367192	1466.0146484375	575.8127441406252	-301.5450744628907	1026.19384765625	359.5272216796876	-518.8339843750002	1030.97802734375	359.9801635742189	-345.827362060547	1035.18359375	170.0403289794922	-483.7762756347659	1032.25439453125	168.9503173828126	-213.3409729003907	757.5899658203127	318.4412231445314	-237.1629791259767	523.297302246094	287.833953857422	-202.2829742431642	317.4932250976564	242.1774291992189	-208.8542022705079	79.70719146728518	220.6726989746095	-250.9999237060548	38.18323898315431	169.1239013671876	-230.8776092529298	44.51604080200197	365.8602600097657	-590.5076293945315	668.670349121094	311.6409912109376	-564.3157348632815	513.4100341796877	294.7425537109376	-593.3453369140627	267.8162841796876	246.3302764892579	-586.9165649414065	83.35147857666018	220.5554504394532	-533.1880493164065	46.50200653076173	165.6554870605469	-570.6853027343752	42.88636016845705	363.5355224609376	-412.4687500000002	929.9651489257817	308.0281982421876	-412.2736511230471	926.5248413085942	437.9618835449221	-282.5211181640626	927.1040039062505	307.7573242187501	-409.6014404296877	1059.867431640625	311.4633789062501	-295.773406982422	517.0218505859377	274.2073059082032	-384.9890136718752	473.3353576660159	678.0564575195315	107.1244201660157	560.160827636719	367.8793334960939	-347.5034179687501	928.3520507812505	307.2752075195314	-253.2090606689454	74.81146240234378	226.4762573242189	-193.9656066894532	35.2445755004883	645.8794555664065	166.1026153564454	121.0936431884766	171.612045288086	-293.7348022460939	495.8421325683596	271.9212036132814	-225.7495574951173	68.16848754882815	360.1917419433595	-247.1917266845704	257.7960815429689	356.2808837890626	-37.07765197753908	89.09072113037112	340.2207946777345	-245.1612091064454	62.05933380126956	170.4036102294922	-219.2790069580079	70.20487976074222	423.4544677734377	-226.4263916015626	133.4140625000001	422.1508483886721	-156.3883666992188	77.1789474487305	416.7974853515627	-225.7495574951173	68.16850280761722	360.1917419433595	-505.1156921386721	510.2685546875002	282.6705627441407	-422.4043579101565	479.1954345703127	696.3650512695315	-91.18041992187503	488.3027343750002	198.261199951172	-477.4340820312502	931.578247070313	308.7811889648439	-542.0925292968752	79.42039489746097	221.1446228027345	-552.5683593750002	21.59797286987305	632.3541259765627	-128.3293457031251	43.13327026367189	226.5829925537111	-506.9273681640627	489.1595458984377	279.6561584472657	-581.2713012695315	65.50594329833987	353.9835510253907	-564.3853149414065	259.0578002929689	360.719940185547	-391.013366699219	47.663875579834	389.7104797363284	-545.082702636719	68.99541473388675	163.0096130371094	-593.334167480469	64.34278869628909	417.6415100097659	-587.705505371094	128.8600769042969	419.8869628906252	-529.9148559570315	58.39543533325198	429.550476074219	-581.2713012695315	65.50593566894534	353.9835205078126	-392.2604980468752	1621.779907226563	215.9675445556642	-419.6058044433596	1680.027099609376	434.0513916015627	-166.5357055664063	1630.074707031251	242.0555114746095	-393.5333251953127	1841.414916992188	157.1464843750001	-228.3795623779298	1445.166625976563	267.8557128906251	-144.5683593750001	1463.59423828125	448.7418212890627	-215.4388122558595	1643.235229492188	241.6817169189454	-409.7407836914065	1467.815307617188	349.5797424316407	-586.5274658203127	1447.660766601563	255.878143310547	-682.001159667969	1467.41259765625	431.7598571777346	-578.1035156250002	1248.554321289063	282.8108520507814	-409.7407836914065	1467.815185546875	349.5797119140626	-409.7408142089846	1467.815307617188	349.5797424316407	-416.0704040527346	1469.039428710938	550.1289672851565	-610.2934570312502	1467.473754882813	343.2521362304689	-409.4380798339846	1267.166625976563	350.8139953613282	46.86316680908205	1363.9765625	291.4063720703126	69.4592208862305	1357.339233398438	4.438812255859377	-34.59756469726564	1087.807861328125	291.3796386718751	-228.3796386718751	1445.16650390625	267.855682373047	-39.62823486328126	1389.464477539063	541.540466308594	183.4903564453126	1323.6435546875	625.3972778320315	-109.5872268676758	1152.289428710938	541.517517089844	40.80867004394533	1365.7607421875	308.9156799316407	-79.14284515380862	1406.085693359375	700.0979003906252	-64.50567626953128	1569.129150390626	686.654235839844	79.61011505126956	1395.190063476563	740.803405761719	-39.62820434570314	1389.464477539063	541.5404052734377	-852.0714721679692	1358.517211914063	248.1963958740236	-825.6838378906255	1303.47998046875	-25.2881317138672	-937.5659179687505	1618.408569335938	187.6456298828126	-586.5274658203127	1447.660888671875	255.8781738281251	-820.2015991210942	1427.862426757813	500.8356628417971	-1052.052734375	1362.581176757813	548.0017089843752	-895.0869140625005	1655.503540039063	447.798767089844	-849.8405761718755	1363.37158203125	265.8811340332032	-801.1713867187505	1455.221435546875	658.4722900390627	-822.9262695312505	1612.937377929688	633.7258300781252	-642.6641845703127	1473.5830078125	636.1502685546877	-820.201538085938	1427.862426757813	500.835632324219	-8.412052154541019	12.50396251678468	-3.078072547912599	1.97326958179474	-20.33596420288087	1.158543467521668	0	0	7.365900516510013	1.488847429674187e-14	1.404512286186219	7.368130683898929	-2.485683202743531	11.25865173339844	-2.032865047454835	-0.2011563479900361	-12.41445541381837	4.694932937622072	3.607967060965252e-13	-9.845651626586918	6.112377643585209	0	0	6.0220160484314	-1.264026761054993	-0.08602290600538257	1.514794230461121	1.264026761054993	0.08602290600538257	1.514794230461121	-6.483722209930423	-5.836936950683596	-91.84367370605472	-5.071893692016603	-10.72828197479248	-88.9532165527344	1.964251399040223	4.797279834747316	-14.51255226135255	-1.964251399040223	-4.797279834747316	-14.51255226135255	1.408653974533081	1.890481472015382	-1.823771715164185	-1.408653974533081	-1.890481472015382	-1.823771715164185	73.48481750488284	-0.1709839403629304	2.858828783035279	-4.884201614522743e-16	-1.136879761338972e-12	105.1316986083985	1.666788816452027	102.1184997558594	-4.783728599548342	71.54717254638675	-11.57758235931397	0.03168459236621858	1.590277359294756e-15	-1.882888376464332e-12	102.9599151611329	-5.16143321990967	99.50834655761724	-1.799663066864015	-0.08645167946815493	-1.807690262794496	-0.3524275422096254	0.08645167946815493	1.807690262794496	-0.3524275422096254	-0.320742040872574	-6.90740537643433	14.9927043914795	0.320742040872574	6.90740537643433	14.9927043914795	
